<?xml version="1.0" encoding="UTF-8"?><svg id="a" xmlns="http://www.w3.org/2000/svg" viewBox="0 0 304 304"><defs><style>.b{fill:#10231c;}.c{fill:none;stroke:#10231c;stroke-miterlimit:10;stroke-width:6px;}</style></defs><g><path class="b" d="M184.28,179.69c-13.91,0-27.31-.22-40.69,.09-7.67,.18-13.55-2.74-18.6-8.18-19.89-21.41-18.06-58.58,3.87-77.89,7.58-6.68,16.29-7.88,24.3-3.36,7.93,4.47,11.22,12.5,9.28,22.61-.92,4.78,4.03,11.98,9.24,12.98,4.96,.95,9.98,1.53,14.99,2.19,10.5,1.4,12.43,3.67,11.68,14.04,9.18,.98,16.85-.33,22.33-9.37,4.75-7.82,11.14-14.65,17.25-22.5,2.29,1.66,4.31,3.13,6.85,4.98-9.16,12.01-17.97,23.57-27.71,36.34h-40.77c-.45-2.46-.86-4.75-1.34-7.35-8.63-1.5-18.48-.43-22.78-11.52l-2.09,2.05c1.92,3.63,4.33,7.08,5.67,10.91,3.57,10.18,11.79,8.99,19.8,8.79,4.61-.12,9.23-.05,13.85,0,10.83,.13,15.04,3.37,16.14,14.01,1.54,14.85,2.4,29.78,3.51,44.68,.43,5.7,.97,11.4,1.06,17.1,.11,6.95-2.75,10.17-8.91,10.76-6.7,.65-11.24-2.5-11.97-9.27-1.51-13.98-2.53-28.01-3.79-42.01-.29-3.22-.75-6.43-1.18-10.08Z"/><path class="b" d="M148.44,194.95c-4.17,0-8.34,.03-12.52,0-18.4-.15-32.01-10.28-36.34-28.29-3.89-16.19-6.72-32.64-10.01-48.98-.78-3.88,.56-6.54,4.55-7.34,3.98-.8,6.29,1.15,7.04,5.01,2.67,13.78,5.43,27.54,7.94,41.36,3.46,19.06,12.11,26.5,31.36,26.57,8.56,.03,17.13,0,25.69,.04,4.01,.02,7.82,.85,7.97,5.8,.16,5.33-4.18,5.56-7.9,5.7-5.92,.22-11.85,.06-17.78,.06v.09Z"/><path class="b" d="M198.92,77.53c-.32,12.53-9.46,21.17-22.11,20.91-11.73-.24-20.8-10.02-20.44-22.04,.35-11.83,10.04-20.99,21.9-20.71,11.74,.27,20.95,10.01,20.65,21.84Z"/><path class="b" d="M122.19,86.06c-1.99,.42-4.85,1.89-5.84,1.08-4.17-3.42-7.96-7.36-11.38-11.53-.47-.58,1.88-3.47,2.93-5.3,4.91,4.38,9.83,8.77,14.74,13.15l-.45,2.6Z"/><path class="b" d="M132.89,78.46c-.75,.85-1.65,2.76-2.85,2.98-1.23,.22-3.63-.93-4-2-1.69-4.91-3.05-9.96-4.04-15.06-.23-1.16,1.21-3.53,2.3-3.83,1.12-.31,3.62,.92,4.01,2.02,1.74,4.9,2.94,9.99,4.58,15.89Z"/><path class="b" d="M93.33,90.9c1.71-1.07,3.33-2.92,4.53-2.68,5.35,1.05,10.63,2.55,15.8,4.28,.9,.3,1.85,2.64,1.57,3.71-.29,1.12-2.27,2.79-3.14,2.59-5.53-1.24-10.99-2.86-16.41-4.56-.78-.24-1.19-1.63-2.35-3.34Z"/></g><circle class="c" cx="152" cy="152" r="149"/><path class="b" d="M99.4,209.6l6.9,10.4c1.8,2.7,3.3,5.2,4.9,7.9h.3c1.6-2.9,3.2-5.4,4.8-8l6.8-10.3h9.5l-16.5,23.4,17,25h-10l-7.1-10.9c-1.9-2.8-3.5-5.5-5.2-8.4h-.2c-1.6,2.9-3.3,5.5-5.1,8.4l-7,10.9h-9.7l17.2-24.7-16.4-23.7h9.8Z"/></svg>