<?xml version="1.0" encoding="UTF-8"?><svg id="a" xmlns="http://www.w3.org/2000/svg" viewBox="0 0 304 304"><defs><style>.b{fill:none;stroke:#137540;stroke-miterlimit:10;stroke-width:6px;}.c{fill:#137540;}</style></defs><g><path class="c" d="M199.86,245.28c-1.39-21.49-2.86-42.98-4.91-64.41-.3-3.16-1.07-5.56-2.36-7.36-1.32-.88-2.51-1.88-3.57-2.97-2.06-.99-4.66-1.47-7.88-1.55-6.15-.16-12.31-.06-18.46-.06q-14.79,0-17.66-14.43c-.12-.61-.02-1.27-.02-2.06l2.51-1.09s2.35,.11,3,0c6-1,10.82-.32,16.97-.25,3.24,.03,12.69-.04,14.54-3.92,0-.01,.01-.02,.02-.03,2.85-8.47-1.28-12.23-12.64-12.28-4.18-.02-8.42,.34-12.5-.32-2.7-.43-5.84-1.77-7.59-3.75-5.38-6.08-10.13-12.71-15.23-19.05-5.75-7.15-13.85-9.54-21.7-6.58-8.28,3.13-12.8,9.63-11.41,19.21,2.35,16.28,5.33,32.49,8.62,48.61,3.43,16.81,9.13,21.06,26.41,21.16,2.86,.02,5.72,0,8.58,0,9.81,0,19.61,0,29.69,0,.32,3.21,.58,5.59,.79,7.97,1.3,14.67,2.39,29.36,3.95,44,.73,6.83,5.01,9.68,12.01,9.22,6.38-.42,9.21-4.31,8.83-10.07Z"/><path class="c" d="M142.28,212.68c-3.95,0-7.9,0-11.85,0-18.99-.05-32.68-10.38-37.05-29.04-3.65-15.58-6.38-31.38-9.43-47.09-.76-3.93-.71-7.65,4.56-8.41,5.08-.74,6.38,2.58,7.14,6.58,2.71,14.22,5.39,28.44,8.2,42.64,3.17,16.05,11.94,23.33,28.36,23.54,8.56,.11,17.12,0,25.68,.05,1.75,0,3.92-.39,5.14,.47,2.08,1.47,4.9,3.79,4.9,5.75,0,1.76-3.24,4.86-5.27,5.05-6.74,.64-13.58,.24-20.38,.24v.22Z"/><path class="c" d="M120.29,56.92c11.61,.03,21.35,9.72,21.49,21.38,.14,11.57-9.62,21.48-21.25,21.57-12.14,.09-21.91-9.64-21.75-21.67,.16-11.78,9.78-21.3,21.5-21.28Z"/></g><circle class="b" cx="152" cy="152" r="149"/><path class="c" d="M178.25,101.93c-2.63-.09-6.16-3.45-6.06-5.06,.11-1.76,1.27-2.55,2.88-2.58,1.61-.03,5.36,3.49,5,4.86-.3,1.16-1.36,2.11-1.81,2.78Z"/><path class="c" d="M190.14,107.68c1.93,.05,5.49,3.17,5.72,4.58,.32,1.95-1.74,3.78-3.51,2.85-1.52-.79-2.88-2.03-4-3.34-.46-.54-.38-1.92-.01-2.66,.36-.73,1.39-1.13,1.8-1.44Z"/><path class="c" d="M164.39,85.88c-.05,1.79-1.98,3.24-3.52,2.36-1.49-.85-2.9-2.02-3.97-3.35-1.21-1.51-.07-3.69,1.84-3.96,1.99-.28,5.71,2.97,5.65,4.95Z"/><path class="c" d="M172.77,76.55c-.72,0-1.66,.29-2.1-.06-.89-.71-2-1.74-2.06-2.7-.05-.77,1.18-1.97,2.1-2.35,1.03-.42,2.35-.16,3.55-.16,1.78,.01,2.97,.86,2.96,2.7,0,1.87-1.24,2.63-3.01,2.61-.48,0-.96,0-1.43,0v-.06Z"/><path class="c" d="M193.48,76.66c-.83-.04-1.74,.19-2.22-.17-.86-.65-1.92-1.61-2.02-2.53-.08-.77,.97-2.2,1.75-2.39,1.57-.4,3.39-.44,4.95-.05,.83,.21,1.89,1.67,1.86,2.53-.03,.85-1.19,1.84-2.08,2.42-.57,.38-1.55,.15-2.24,.18Z"/><path class="c" d="M152.03,76.57c-.64,0-1.47,.26-1.87-.05-.91-.7-2.22-1.68-2.22-2.55,0-.88,1.21-2.15,2.18-2.54,1.09-.45,2.51-.18,3.78-.1,1.66,.11,2.73,.97,2.64,2.73-.08,1.72-1.14,2.54-2.83,2.56-.56,0-1.12,0-1.67,0v-.04Z"/><g><path class="c" d="M157.46,160.9c-.23-3.01-.45-5.77-.7-8.98h-11.2c-.06,.65-.26,1.3-.14,1.88q3.16,14.55,18.17,14.54c5.71,0,11.41-.07,17.12,.04,9.53,.18,13.78,3.13,14.67,12.4,2.03,21.17,3.44,42.41,4.81,63.64,.37,5.72-2.3,9.7-8.69,10.18-7,.52-11.38-2.31-12.11-9.06-1.57-14.61-2.66-29.28-3.96-43.92-.21-2.38-.45-4.75-.73-7.79-2.55-.11-4.86-.29-7.18-.3-12.07-.06-24.15,.05-36.22-.16-9.5-.16-17.04-4.16-19.13-13.89-4.09-19.04-7.76-38.2-10.83-57.43-1.28-8,3.74-14.32,11.39-17.28,7.07-2.74,15.68-.83,20.42,4.9,5.45,6.59,10.39,13.63,16.1,19.99,2.02,2.25,5.51,3.78,8.58,4.36,4.03,.77,8.3,.32,12.47,.34,12.83,.06,16.28,5.76,9.7,17.44,5.79,0,11.19,0,16.58,0,.44,0,1.15,.12,1.27-.09,5.44-9.41,15.03-2.73,22.98-6.13-.28-12.07,.53-24.58-7.46-37.57-1.48,9.54-2.67,17.21-3.95,25.45-3.61-.4-6.77-.75-10.84-1.2,3.49-24.99,6.89-49.43,10.41-74.64,3.69,.34,7.02,.65,11.1,1.03-1.62,11.46-3.08,22.26-4.71,33.04-.83,5.48-.82,9.95,3.32,14.99,7.28,8.87,6.88,20.5,7.7,31.43,.19,2.58,.03,5.18,.03,7.19,4.41,1.38,8.76,1.73,11.7,3.94,3.22,2.42,7.88,5.46,4.24,11.68h-84.92Z"/><path class="c" d="M120.86,56.54c11.58,.08,21.28,9.8,21.36,21.44,.08,11.55-9.72,21.41-21.31,21.43-12.13,.02-21.84-9.75-21.61-21.74,.22-11.77,9.85-21.21,21.57-21.14Z"/></g></svg>