<?xml version="1.0" encoding="UTF-8"?><svg id="a" xmlns="http://www.w3.org/2000/svg" viewBox="0 0 304 304"><defs><style>.b{fill:#fff;}.c{fill:none;stroke:#137540;stroke-miterlimit:10;stroke-width:6px;}.d{fill:#137540;}</style></defs><path class="b" d="M100.84,247.71l1.83-2.64,1.84,2.64h-3.68Z"/><circle class="c" cx="152" cy="152" r="149"/><path class="d" d="M148.06,146.4c-1.16,.1-1.94,.97-1.91,2.1,.03,1.1,.82,1.87,1.98,1.92,.26,.01,.53,0,.79,0,12.02,0,24.04,0,36.06,0,1.08,0,2.16-.04,3.24-.04,2.39,0,4.79,.03,7.18,.04,4.03,.01,8.06,.01,12.09,.02,.05,0,.1,.06,.19,.11v96.66h4.04c0-12.74-.02-25.48-.02-38.22,0-20.03,.01-40.06,.02-60.09,0-1.86-.68-2.53-2.53-2.53-7.63,0-15.25,0-22.88,0-12.52,0-25.03,0-37.55,0-.23,0-.47-.01-.7,0Z"/><path class="d" d="M103.69,153.4c.05,.36,.09,.74,.07,1.1-.04,.7-.18,1.39-.18,2.09,0,9.53,0,19.06,0,28.59,0,18.65,0,37.31-.03,55.96,0,2.33,.56,4.36,2.08,6.08h11.55c.52-.74,1.01-1.45,1.5-2.15,.48,.68,.98,1.41,1.51,2.15h11.55c.35-.47,.68-.91,.98-1.36,1.06-1.58,1.05-3.43,1.23-5.22,.6-6.02,1.19-12.04,1.8-18.05,.64-6.27,1.29-12.55,1.93-18.82,.15-1.45,.42-2.9,.43-4.35,.01-1.48-.2-2.96-.35-4.44-.55-5.35-1.12-10.69-1.66-16.04-.76-7.47-1.52-14.94-2.27-22.41-.09-.86-.23-1.74-.14-2.58,.18-1.58,.75-3.14,.77-4.71,.09-6.66,.04-13.32,.04-19.99l.16-.04c.44,.85,.84,1.72,1.34,2.54,.22,.35,.6,.73,.98,.84,8.26,2.52,16.53,5.01,24.8,7.49,3.18,.95,6.31-.74,7.28-3.88,.93-3.03-.81-6.24-3.94-7.19-6.64-2.02-13.3-4-19.94-6.04-.44-.13-.93-.51-1.14-.91-3.07-5.84-6.11-11.7-9.13-17.57-.26-.51-.5-1.06-.63-1.61-1.27-5.59-4.57-9.34-10.03-11.16-2.24-.75-4.56-.62-6.86-.61-7.84,.02-14.31,6.46-14.32,14.3-.01,14.65-.02,29.3,.02,43.94,0,1.35,.4,2.7,.6,4.05Zm15.56,14.74l.09,.02c.48,4.71,.96,9.41,1.44,14.12,.51,4.97,.98,9.94,1.54,14.91,.29,2.54-.18,5.01-.41,7.5-.4,4.3-.86,8.6-1.3,12.91-.42,4.15-.85,8.31-1.36,12.46v-61.9Z"/><path class="d" d="M118.78,89.46c-9.17-.03-16.55-7.43-16.52-16.57,.03-9.12,7.43-16.5,16.53-16.48,9.16,.02,16.56,7.44,16.53,16.58-.03,9.1-7.46,16.5-16.54,16.48Z"/><path class="d" d="M190.41,101.86c3.12,2.11,6.15,4.2,9.22,6.23,.91,.6,1.27,1.35,1.27,2.41-.02,10.55-.01,21.11-.01,31.66,0,.2,0,.41,0,.61-.03,1.81-.79,2.54-2.58,2.52-2.98-.03-5.96-.07-8.94-.06-9.85,.01-19.7,.04-29.55,.06-.29,0-.59,0-.87-.04-1.05-.17-1.83-1.09-1.78-2.07,.06-1.09,.87-1.92,2-1.93,2.34-.03,4.68-.01,7.02-.01,9.94,0,19.88,0,29.82,0,.23,0,.46,0,.78,0,.02-.37,.06-.68,.06-.98,0-9.44,0-18.89,.01-28.33,0-.64-.21-1-.72-1.34-2.24-1.48-4.45-3.01-6.68-4.51-.14-.09-.29-.17-.48-.27-2.67,7.31-5.32,14.57-7.98,21.82-.22,.6-.44,1.21-.67,1.81-.57,1.51-2.03,2.25-3.43,1.74-1.48-.54-2.18-2-1.61-3.56,1.77-4.88,3.56-9.76,5.34-14.63,4.86-13.28,9.71-26.57,14.57-39.85,.62-1.7,2.08-2.45,3.57-1.89,1.47,.56,2.09,2.06,1.49,3.7-1.76,4.79-3.55,9.57-5.3,14.37-1.52,4.15-3.01,8.32-4.53,12.54Z"/><path class="b" d="M119.34,168.15c.48,4.71,.96,9.41,1.44,14.12,.51,4.97,.98,9.94,1.54,14.91,.29,2.54-.18,5.01-.41,7.5-.4,4.3-.86,8.6-1.3,12.91-.42,4.15-.85,8.31-1.36,12.46v-61.9l.09,.02Z"/></svg>