<?xml version="1.0" encoding="UTF-8"?><svg id="a" xmlns="http://www.w3.org/2000/svg" viewBox="0 0 304 304"><defs><style>.b{fill:none;stroke:#137540;stroke-miterlimit:10;stroke-width:6px;}.c{fill:#137540;}</style></defs><circle class="b" cx="152" cy="152" r="149"/><g><path class="c" d="M210.34,241.93c-1.39-21.49-2.86-42.98-4.91-64.41-.3-3.16-1.07-5.56-2.36-7.36-1.32-.88-2.51-1.88-3.57-2.97-2.06-.99-4.66-1.47-7.88-1.55-6.15-.16-12.31-.06-18.46-.06q-14.79,0-17.66-14.43c-.12-.61-.02-1.27-.02-2.06l2.51-1.09s2.35,.11,3,0c6-1,10.82-.32,16.97-.25,3.24,.03,12.69-.04,14.54-3.92,0-.01,.01-.02,.02-.03,2.85-8.47-1.28-12.23-12.64-12.28-4.18-.02-8.42,.34-12.5-.32-2.7-.43-5.84-1.77-7.59-3.75-5.38-6.08-10.13-12.71-15.23-19.05-5.75-7.15-13.85-9.54-21.7-6.58-8.28,3.13-12.8,9.63-11.41,19.21,2.35,16.28,5.33,32.49,8.62,48.61,3.43,16.81,9.13,21.06,26.41,21.16,2.86,.02,5.72,0,8.58,0,9.81,0,19.61,0,29.69,0,.32,3.21,.58,5.59,.79,7.97,1.3,14.67,2.39,29.36,3.95,44,.73,6.83,5.01,9.68,12.01,9.22,6.38-.42,9.21-4.31,8.83-10.07Z"/><path class="c" d="M152.76,209.33c-3.95,0-7.9,0-11.85,0-18.99-.05-32.68-10.38-37.05-29.04-3.65-15.58-6.38-31.38-9.43-47.09-.76-3.93-.71-7.65,4.56-8.41,5.08-.74,6.38,2.58,7.14,6.58,2.71,14.22,5.39,28.44,8.2,42.64,3.17,16.05,11.94,23.33,28.36,23.54,8.56,.11,17.12,0,25.68,.05,1.75,0,3.92-.39,5.14,.47,2.08,1.47,4.9,3.79,4.9,5.75,0,1.76-3.24,4.86-5.27,5.05-6.74,.64-13.58,.24-20.38,.24v.22Z"/><path class="c" d="M130.78,53.57c11.61,.03,21.35,9.72,21.49,21.38,.14,11.57-9.62,21.48-21.25,21.57-12.14,.09-21.91-9.64-21.75-21.67,.16-11.78,9.78-21.3,21.5-21.28Z"/></g></svg>