<svg id="Layer_1" data-name="Layer 1" xmlns="http://www.w3.org/2000/svg" viewBox="0 0 1294.84 539.87"><defs><style>.cls-1{fill:#0e231a;}.cls-2{fill:#167540;}</style></defs><path class="cls-1" d="M649.64,120c-8.59.9-17.75.14-25.72-3.36-14.49-6.37-24.42-21.44-39.74-25.45-15.76-4.14-32,4.86-44.16,15.73-28.17,25.26-46.82,63.26-82.19,76.69-5.35,2-11,3.45-15.81,6.56s-8.71,8.46-8,14.14c1.22,10.46,14.86,13.27,25.37,13.85a393.37,393.37,0,0,1,69,10c19,4.5,38.35,10.47,57.65,7.59,28.22-4.21,51.92-29.33,54.49-57.74,1-11.52-.52-24.7,7.41-33.12,5.34-5.68,14.55-6.17,21.81-7.93q13.1-3.16,26.23-6.14s721.36-160,721.59,86.49c0,25.17-8.11,51.32-28.58,66a84.51,84.51,0,0,1-27.2,12.47,142.74,142.74,0,0,1-25.31,4.29c-.41-3.58-.81-7.15-1.22-10.72-1.37-12.16-2.29-24.54-3.19-36.51-.65-8.77-1.33-17.83-2.18-26.73-1.22-12.84-5.21-20.32-11.86-22.22a10.23,10.23,0,0,0-7.75,1.41,8.21,8.21,0,0,0-4,5.23c-.5,2.49,1.29,41,2.61,66.28V277q-1.46,12.12-4,24.25c-8.24.13-16.48.32-24.7,1-5.27.42-11.54,1.78-13.4,6.73-1.61,4.25,1.22,9.15,5.17,11.39s8.69,2.47,13.24,2.57q7.14.15,14.29,0c-10.58,36.7-28.53,73.24-53.67,109.13-4.48,6.39-10,13.79-16.81,20.24l-1.53,1.45-.15-2.11q-.62-8.69-1.29-17.47c-1.68-22.18-3.42-45.11-3.42-67.42a17.44,17.44,0,0,1,.31-5.71,17.81,17.81,0,0,1,3.69-6.22l.25-.3a128.89,128.89,0,0,0,27.72-82.65c-.86-29.23-11.72-62.49-39.62-68.18a13.54,13.54,0,0,0-10.25,1.95c-11.37,7.39-11.75,29.17-11.91,38.47,0,.74,0,1.39,0,2.05,0,5.34.43,10.83.85,16.14.25,3.14.51,6.39.67,9.57l1.42,27.67c.49,9.4,1.3,18.94,2.08,28.17l.06.69c.13,1.57.31,3.12.48,4.61.71,6.15,1.38,11.95-1.06,18.49s-6.61,12.2-10.38,16.9a180.56,180.56,0,0,1-28.12,28.11l-2.31,1.87c-8.81,7.19-22.14,18-33.9,13.54-8.34-3.19-11.11-13.31-11.76-16.34-2.63-12.25-2.9-25.86-.79-40.47.67-4.61,1.58-9.33,2.7-14,2.89-12,.22-19.5-8.37-23.49-17.94-8.31-41.17-5.35-60.22-3.06a207.27,207.27,0,0,0-38.1,8.56A115.09,115.09,0,0,0,988.61,330a87.54,87.54,0,0,0-10.49,6.27c-2.93,2.05-6.4,4.85-9.87,2a12.83,12.83,0,0,1-1.78-1.83l-.28-.34c-29.1-35.55-54.78,15.12-71,35.49-17.7,22.27-42,36.48-71.17,31.37-18.93-3.31-37.66-14.75-48.34-30.92-15.33-23.19-12-53.68-5.75-79.38,12.79-52.62,57.71-104,115.34-103.35,12.58.14,23.86,5.41,35.65,9.54,2.57.9,5.37,1.8,7.93.9,5.45-1.92,5.28-9.89,2.6-15-8.3-15.87-28.45-21.62-46.36-21.13-27.52.75-54.06,12.47-75.49,29.77-33.21,26.82-60.3,68.72-69.25,110.61-4.79,22.4-3.58,44.17,3.49,63,12.28,32.67,43.87,56.81,78.61,60.08,19.83,1.87,40.53-3.19,58.27-14.23,12.44-7.75,20.7-18.2,29.44-29.27,4.32-5.48,8.79-11.14,13.82-16.46a62.23,62.23,0,0,1,12.4-10.38c2.43-1.51,6.14-3.49,10.14-3.42,9.91.19,10,11.35,10.09,15.55.13,10.34.75,20.79,1.85,31.08.16,1.52.27,3.22.39,5,.42,6.46.94,14.5,4.28,19,1.4,1.92,5.15,6.17,9.71,4.28,3-1.24,4.59-4.17,5.26-5.8,2.51-6.09,2.73-13.18,2.94-20.05,0-1.28.07-2.55.13-3.8l.1-2.51c.36-8.69.72-17.66,3.42-26.09,5.94-18.5,26.26-28.22,42.62-29.41l.15,2c-.85.41-2.27,5.16-2.74,6.73-4.69,15.65-11.84,28.31-9.09,45.42,4.31,26.8,31.47,45.53,57.61,34a29.78,29.78,0,0,0,5.36-3.41c3.73-2.75,7.59-5.6,12.69-4.44,3.54.8,6.8,3.34,10,5.8a38.38,38.38,0,0,0,6.77,4.57c12.86,6,28.13,6.73,40.85,1.85,12.42-4.75,22.48-14.11,32.21-23.16,6.13-5.7,12.46-11.59,19.4-16.39l0,0,1.12,1.66a.59.59,0,0,0,.19-.21c-.52,1.19.39,9.4.73,12.49.16,1.44.28,2.48.3,2.95.94,19.13,2.06,39.32,3.34,60a14.48,14.48,0,0,1-.27,4.87,14.7,14.7,0,0,1-1.84,3.7l-2.32,3.68c-14,22.18-28.46,45.13-31.07,72.05-1.18,12.23.5,28.62,8.78,38a20.92,20.92,0,0,0,15.78,7.15c22.57.51,34.61-25.2,37.22-42.6,1.66-11.09,1.29-22.49.77-31.18-.16-2.8-.69-6.09-1.24-9.58-1.19-7.52-2.54-16-.55-22,1.07-3.21,3.25-6.08,5.18-8.62l.13-.16c20.14-26.46,37.9-55.28,54.29-88.13,1.55-3.11,3.17-6.23,4.73-9.26,6.49-12.6,13.21-25.63,16.77-39.8.05-.24.11-.55.17-.91.32-1.91.92-5.44,3.7-5,2.59.39,3.38,4,3.84,6.2l.18.81c1.28,5.12,2.63,10.36,4,15.44,1.95,7.54,4,15.34,5.79,23,1,4.27,1.91,8.64,2.79,12.86a242.74,242.74,0,0,0,6.15,25.13,98.45,98.45,0,0,0,3.7,9.82c.5,1.14,1,2.26,1.55,3.32,2.6,5.26,5.53,8.85,9,11,5.32,3.28,13.1,3.67,17.67-1.93,6.14-7.51-.89-20-5.54-28.22-.57-1-1.1-2-1.57-2.82l-.52-1c-3.76-6.93-7-13.23-9.2-20.17-7.7-24.63-12-50.06-15.34-75.61,1.08-.12,2.15-.23,3.22-.36,20.86-2.56,42.22-7.07,59.33-19.29,21.49-15.35,33.13-41.55,36.2-67.79C1473.3-72.91,649.64,120,649.64,120Zm444.08,238.5-.6,3.1c-1.91,9.95-3.89,20.25-8.76,29.25-3.79,7-7.78,13.62-14.87,17.29a35.63,35.63,0,0,1-15.81,3.69c-5.45,0-10.69-1.32-14.31-4.43-4.53-3.88-6.36-10.89-4.9-18.76,2.77-14.9,8.46-35.2,19.85-47.3,7.56-8,17.8-10.94,27.4-7.78a18.47,18.47,0,0,1,10.32,8,19,19,0,0,1,2.38,8.62A34.48,34.48,0,0,1,1093.72,358.54Zm116.82,170.84c0,3.68-.18,7.36-.22,8s-.09,1.21-.13,1.94c-.5,7.86-1.43,22.49-9.7,23.92a5,5,0,0,1-.87.08,6.54,6.54,0,0,1-2.95-.76c-6.47-3.24-8.23-10.9-4.7-20.5a44.81,44.81,0,0,1,6.58-11.9l.43-.56c3.1-4.07,6.67-8.44,9.83-8.85a1.08,1.08,0,0,1,.91.31C1210.11,521.4,1210.6,521.85,1210.54,529.38Zm10.59-206.57a2.41,2.41,0,0,1-1.38,1.14,1.7,1.7,0,0,1-.44.05,1.73,1.73,0,0,1-.91-.25,3.32,3.32,0,0,1-1.3-2c-2.9-11.47-3.7-23.72-4.48-35.57l-.22-3.36c-.45-6.7-.75-14-.94-22.88,0-1.05,0-2.11-.08-3.16-.18-6.4-.37-13,1.08-19.49a4.42,4.42,0,0,1,2-3.16c1.31-.64,2.83-.09,4,.46a35.37,35.37,0,0,1,15.22,13.74c4,6.74,5.57,14.8,4.86,25.38-.51,7.67-3.52,15.73-6.18,22.83l-.89,2.4c-1.55,4.2-3.27,8.41-5.11,12.52-.52,1.17-1,2.38-1.47,3.55a43.88,43.88,0,0,1-3.73,7.81Z" transform="translate(-143.91 -60)"/><path class="cls-1" d="M675.24,392.41c-3.65-17-2.07-35.22,2-51.91,1.2-4.84,1.85-10.17-.35-14.66a17,17,0,0,0-8.31-7.54c-6-2.79-13-3.86-19.58-4.53-12.79-1.34-26.72,1.21-36.86,9.54-16.68,13.72-26,34.66-30.5,55.78-1.66,7.79-3,16.18-8.36,22.05-7.3,8-18.62,5.39-23.62-3.41-7.37-13-7.59-26.68-4.79-41.05,2-10.25,4.75-20.55,4-31a23.13,23.13,0,0,0-2.62-10c-2.45-4.27-7.46-7.72-12-4.48-7.05,5-9.53,13-10.21,21.35-.78,9.5-1.85,18.66-3.5,28-.8,4.51-1.59,9-2.71,13.46-4.58,18.06-18.49,26.43-35.61,30.77l-8.59.65c-8.65-1.48-11.75-6.76-13.59-15.34-3.65-17-2.07-35.22,2-51.91,1.21-4.85,1.85-10.17-.35-14.67a16.93,16.93,0,0,0-8.3-7.53c-6-2.79-13.05-3.87-19.58-4.54-12.8-1.34-26.73,1.21-36.87,9.55s-17.47,19.26-22.68,31.1c-4.11,9.36-5.05,19.39-8.36,28.91a31.46,31.46,0,0,1-20.13,19.8,11.38,11.38,0,0,1-8.15-.29c-7.62-3.61-6.08-11.13-5.59-17.8a207.45,207.45,0,0,1,3-22.05c2-10.86,4.47-21.62,7.28-32.29.78-3,1.57-5.9,2.43-8.83,1.05-8.09,1.44-18.05-5.4-22.5-10.79-7-24.71,8.1-37.07,4.49-7.48-2.19-13.15-11-20.77-9.42-6,1.27-8.74,8.82-7.37,14.82s5.46,10.92,8.73,16.13c13.9,22.16,12.17,53.29-4.82,73.18s-48.19,26.33-71.25,14c-18.46-9.9-30-29.49-35.79-49.63-10.33-36-4.69-75.64,12.33-109,13.39-26.26,34.28-49.44,61.17-61.52,28.65-12.88,64.37-11.73,89.4,7.72a8.06,8.06,0,0,0,10.66-.58c3.52-3.64.87-8.47-2-11.79-19-22-51.73-27.65-80.18-21.76-59.3,12.28-102.83,68-114.86,127.34-5.4,26.58-5.44,54.65,3.18,80.37s26.46,48.84,50.75,60.89c12.35,6.12,26.34,9.32,40,7.78,20.12-2.26,38.25-14.72,50.1-31.12a91.49,91.49,0,0,0,14.18-75.74,7.93,7.93,0,0,1,2.36-8.07c5.77-4.94,12.47,3.89,13.5,11a8.77,8.77,0,0,1-.62,2.57c-.56,2.35-1.07,4.72-1.56,7.08-1.6,7.72-2.91,15.5-3.85,23.33-.71,5.9-1.27,11.85-1.41,17.8-.24,10.7,3.43,21.41,11.23,29,6.27,6.1,14.16,7.34,22.36,4.95S364,413.76,372.73,415c7,1,13.2,4.75,19.42,8,11.46,6,27.08,3.08,37.67-3.93,2.72-1.8,5.39-4,8.63-4.33,4.32-.45,7.24,2.63,10.1,5.37,8.74,8.4,24.57,10.55,36.06,9.15a53.26,53.26,0,0,0,21.95-7.87c6.58-4.17,12.33-11,20.89-10.53,4.48.27,6.53,4.78,10.06,7.55,6.42,5,9.82,8.16,17.25,11.52s17,3.65,23-1.92c3-2.81,5-6.93,8.72-8.63,5.64-2.53,11.79,1.62,17.31,4.4a41.87,41.87,0,0,0,41.15-2.43c2.72-1.8,5.4-4,8.63-4.32,4-.42,9.07,2.44,13.28,5.76a11.57,11.57,0,0,0,13.29.63h0A11.62,11.62,0,0,0,682.78,406C679.14,401.8,676.22,397,675.24,392.41ZM442.89,347.63c-2.19,12.76-2.5,25.15-9.34,37.8-5.6,10.38-10.77,18.59-27.64,19-15,.38-21.3-9.13-16.58-23.74,5.81-18,7.73-35.35,23.75-46,4.59-3.05,16.79-3.92,22.3-.3C440.63,337.81,443.58,343.61,442.89,347.63ZM658,349.92c-1,5.58-1.56,11.09-2.5,16.58-.34,2-.72,3.93-1.18,5.89s-1,3.92-1.63,5.88c-.25.79-.53,1.57-.82,2.36a59.16,59.16,0,0,1-2.59,5.9l-.63,1.19c-.18.32-.35.64-.52,1-.35.64-.7,1.28-1,1.9s-.71,1.22-1.07,1.82-.72,1.19-1.1,1.75a38,38,0,0,1-2.37,3.27c-.43.51-.86,1-1.31,1.49-.24.24-.46.48-.7.71-4.25,4.17-10,6.87-19.52,7.09-12.92.32-19.4-6.71-17.9-18,.1-.72.23-1.46.39-2.21a34.39,34.39,0,0,1,.94-3.49c5.81-18,7.73-35.36,23.74-46,4.6-3.05,16.8-3.93,22.31-.31a18.82,18.82,0,0,1,3.19,2.67c.46.48.89,1,1.3,1.5C657.34,343.82,658.47,347.26,658,349.92Z" transform="translate(-143.91 -60)"/><path class="cls-2" d="M653.7,339.29c.46.48.89,1,1.3,1.5C654.6,340.28,654.16,339.77,653.7,339.29ZM604.46,383a32,32,0,0,0-.94,3.49A34.39,34.39,0,0,1,604.46,383Zm-.94,3.49c-.16.75-.3,1.49-.39,2.21C603.23,388,603.36,387.21,603.52,386.46Zm13.89-227.71a6.15,6.15,0,0,0-2,.26,2.1,2.1,0,0,1-.24.06c-.49.14-1,.32-1.46.49q-32.91,11.82-65.85,23.6a16,16,0,0,1-5.17,1.2,6,6,0,0,1-2.1-.31c-2.36-.8-3.93-3.12-4.6-5.53a7.25,7.25,0,0,1,.29-5.21c1.25-2.38,4.1-3.35,6.67-4.15a231.59,231.59,0,0,0,23.29-8.81c7.63-3.34,15.11-7,22.5-10.81,3.71-1.91,7.39-3.86,11.06-5.82l5.5-3c2.19-1.17,6.74-2.69,6.79-5.78a4.5,4.5,0,0,0-1.15-2.64c-6.69-9-16.22-16.33-27.3-18.89a33.1,33.1,0,0,0-12.47-.58,21.19,21.19,0,0,0-10.1,4.34c-12.18,9.91-24.18,21-33,33.84-12.87,18.71-27.09,35.47-47,49.54l-1,.69a5.33,5.33,0,0,1,2-.77c5.75-1.2,18.05,1.81,22.24,2.51,18.12,3,35.68,9.38,53.75,12.93,5.73,1.12,11.62,2.1,17.43,1.62h0c.79-.07,1.57-.17,2.36-.29,7.12-1.13,13.67-4.73,19.28-9.27,7.68-6.21,15.52-14.16,19.49-23.32a58.52,58.52,0,0,0,4.28-15.94C621.28,165.55,622.2,159,617.41,158.75Z" transform="translate(-143.91 -60)"/></svg>