<?xml version="1.0" encoding="UTF-8"?><svg id="a" xmlns="http://www.w3.org/2000/svg" viewBox="0 0 69.48 97.14"><defs><style>.b{fill:#1d1d1b;}</style></defs><path class="b" d="M65.65,94.61l-18.15-26.16s14.53-1.34,14.77-14.16c-.85-18.93-41.03-14.9-41.03-14.9v22.92s-4.4-.82-7.57-7.9C5.01,28.03,17.58,13.62,25.4,5.69c7.81-7.94,36.14-1.34,31.26,13.06-4.88,14.41,12.58,22.83,12.58,22.83C72.16,12.4,48.6,0,34.62,0S0,12.28,0,34.13s21.61,31.38,21.61,31.38l.12,29.18-4.4,.12,.12,2.32h19l.17-2.32h-5.37s-.05-20.87,.07-26.73c5.57-.51,.06-3.36,.06-3.36l.12-22.53s20.63-1.71,19.78,11.97c-.85,13.68-14.9,13.43-14.9,13.43l18.07,29.55h15.02v-1.77l-3.84-.75Zm-2.95-77.32c4.82,9.65,2.01,11.36,2.01,11.36-.85-4.76-4.03-10.13-4.03-10.13,0,0,0-4.15,2.01-1.22Z"/></svg>